<svg id="Layer_1" data-name="Layer 1" xmlns="http://www.w3.org/2000/svg" viewBox="0 0 212.19 398.62"><defs><style>.cls-1{fill:#fff;}.cls-2{fill:none;stroke:#fff;stroke-miterlimit:10;stroke-width:10px;}</style></defs><title>boxing</title><circle class="cls-1" cx="80.19" cy="44.94" r="44.94"/><path class="cls-2" d="M1199.81,1217.49s-68.94,39.06-59,72,81.19,90.38,95.74,131,4.6,126.38,4.6,126.38" transform="translate(-1134.17 -1148.81)"/><path class="cls-2" d="M1184.49,1202.94s-1.53,245.1-10,262-13.79,29.88-36.76,53.62" transform="translate(-1134.17 -1148.81)"/><path class="cls-1" d="M1277.17,1274.94s19.92-44.17,45.19-29.62,28.08,36.6,19.92,38.81c-24.51,6.64-15.8-6.06-31.66-10.73C1297.6,1269.57,1277.17,1274.94,1277.17,1274.94Z" transform="translate(-1134.17 -1148.81)"/><path class="cls-1" d="M1218.32,1331.74s20.34-40,45.62-25.44,28.07,36.6,19.91,38.81c-24.51,6.63-15.29-8.36-31.66-10.73C1237.47,1332.26,1218.32,1331.74,1218.32,1331.74Z" transform="translate(-1134.17 -1148.81)"/><line class="cls-2" x1="51.72" y1="177.32" x2="97.3" y2="178.72"/><path class="cls-2" d="M1184.06,1246.09l14.73,47.23h35.74s51.07-15.32,57.7-25" transform="translate(-1134.17 -1148.81)"/></svg>