<svg id="Layer_1" data-name="Layer 1" xmlns="http://www.w3.org/2000/svg" viewBox="0 0 288.74 339.62"><defs><style>.cls-1{fill:#fff;}.cls-2{fill:none;stroke:#fff;stroke-miterlimit:10;stroke-width:10px;}</style></defs><title>tennis</title><circle class="cls-1" cx="181.53" cy="44.94" r="44.94"/><path class="cls-1" d="M1330,1325.66c0,20.73-16.61,31.4-33.32,31.4s-31-22.93-31-43.66,14.31-31.4,31-31.4S1330,1304.93,1330,1325.66Z" transform="translate(-1265.68 -1281.74)"/><path class="cls-2" d="M1319.13,1388c36.43,5.59,97.7,18,117.1-2.56,9.82-10.41,14-31.4,14-31.4" transform="translate(-1265.68 -1281.74)"/><polyline class="cls-2" points="208.34 58.47 208.85 103.15 280.34 234.38"/><circle class="cls-1" cx="72.38" cy="150.77" r="11.11"/><path class="cls-2" d="M1345.34,1458.94l17.85,5c42.34,11.78,87.54-8.73,105.22-49,2.07-4.71,5.93-29.2,6.12-30" transform="translate(-1265.68 -1281.74)"/><path class="cls-2" d="M1452.57,1612.13v-70.46a58.89,58.89,0,0,1,17.39-42c10-9.86,23.54-18.27,38.53-14,24.47,7,39.83,29.11,40.6,42.9s0,92.68,0,92.68" transform="translate(-1265.68 -1281.74)"/><line class="cls-2" x1="39.15" y1="60.6" x2="56.85" y2="108.94"/></svg>